<?xml version="1.0" encoding="iso-8859-1"?>
<!-- Generator: Adobe Illustrator 19.0.0, SVG Export Plug-In . SVG Version: 6.00 Build 0)  -->
<svg version="1.1" id="Capa_1" xmlns="http://www.w3.org/2000/svg" xmlns:xlink="http://www.w3.org/1999/xlink" x="0px" y="0px"
	 viewBox="0 0 408.813 408.813" style="enable-background:new 0 0 408.813 408.813;" xml:space="preserve">
<g>
	<g>
		<path d="M406.963,201.137l-24.094-14.458c-11.922-7.154-15.078-23.026-6.801-34.198l16.726-22.575
			c1.711-2.31,0.344-5.612-2.5-6.036l-27.793-4.136c-13.754-2.046-22.742-15.503-19.371-28.99l6.813-27.258
			c0.621-2.472-1.293-4.738-3.676-4.738c-0.309,0-0.621,0.038-0.942,0.117l-27.262,6.815c-1.922,0.481-3.848,0.71-5.734,0.71
			c-11.359,0-21.5-8.29-23.254-20.08l-4.137-27.794c-0.293-1.986-1.996-3.253-3.782-3.253c-0.77,0-1.558,0.236-2.254,0.753
			l-22.578,16.729c-4.23,3.134-9.137,4.629-13.984,4.629c-7.957,0-15.766-4.023-20.211-11.43L207.674,1.848
			C206.932,0.616,205.67,0,204.404,0c-1.262,0-2.527,0.616-3.266,1.85l-14.453,24.094c-4.446,7.406-12.258,11.43-20.211,11.43
			c-4.851,0-9.754-1.494-13.984-4.629l-22.578-16.729c-0.699-0.517-1.484-0.753-2.258-0.753c-1.785,0-3.484,1.266-3.782,3.253
			L119.74,46.31c-1.754,11.789-11.898,20.08-23.254,20.08c-1.89,0-3.813-0.23-5.734-0.71l-27.262-6.815
			c-0.32-0.079-0.633-0.117-0.942-0.117c-2.386,0-4.301,2.266-3.68,4.738l6.817,27.26c3.371,13.487-5.621,26.943-19.371,28.99
			l-27.793,4.136c-2.848,0.424-4.215,3.726-2.5,6.036l16.726,22.575c8.278,11.171,5.121,27.044-6.801,34.198L1.85,201.139
			c-2.465,1.479-2.465,5.054,0,6.534l24.098,14.458c11.922,7.154,15.078,23.025,6.801,34.194l-16.726,22.577
			c-1.715,2.31-0.348,5.614,2.5,6.036l27.793,4.136c13.75,2.047,22.742,15.502,19.371,28.99l-6.817,27.261
			c-0.621,2.472,1.293,4.738,3.68,4.738c0.309,0,0.621-0.037,0.942-0.117l27.258-6.815c1.922-0.481,3.848-0.71,5.738-0.71
			c11.359,0,21.5,8.29,23.254,20.081l4.133,27.793c0.297,1.986,1.996,3.253,3.782,3.253c0.774,0,1.558-0.236,2.258-0.753
			l22.574-16.729c4.23-3.134,9.137-4.629,13.984-4.629c7.957,0,15.766,4.023,20.211,11.43l14.457,24.097
			c0.738,1.234,2.004,1.85,3.266,1.85c1.266,0,2.527-0.616,3.27-1.85l14.457-24.096c4.446-7.406,12.254-11.43,20.211-11.43
			c4.851,0,9.754,1.494,13.984,4.629l22.578,16.729c0.695,0.517,1.484,0.753,2.254,0.753c1.785,0,3.488-1.266,3.782-3.253
			l4.137-27.793c1.754-11.79,11.894-20.081,23.25-20.081c1.89,0,3.813,0.23,5.738,0.71l27.262,6.815
			c0.317,0.08,0.633,0.117,0.942,0.117c2.383,0,4.297-2.265,3.676-4.738l-6.813-27.261c-3.371-13.487,5.617-26.942,19.367-28.99
			l27.797-4.136c2.844-0.423,4.211-3.726,2.5-6.036l-16.73-22.577c-8.277-11.172-5.117-27.043,6.801-34.197l24.098-14.458
			C409.428,206.191,409.428,202.617,406.963,201.137z M374.63,208.411c-9.542,5.727-16.261,15.274-18.433,26.192
			c-2.168,10.916,0.386,22.305,7.012,31.246l4.633,6.252l-7.699,1.146c-11.008,1.638-20.867,7.885-27.05,17.138
			c-6.183,9.255-8.183,20.757-5.484,31.556l1.886,7.55l-7.55-1.888c-3.152-0.788-6.386-1.187-9.617-1.187
			c-19.414,0-36.215,14.499-39.074,33.726l-1.15,7.698l-6.25-4.631c-6.863-5.087-14.992-7.775-23.512-7.775
			c-13.824,0-26.828,7.357-33.93,19.199l-4.004,6.674l-4.008-6.675c-7.211-12.022-19.894-19.198-33.93-19.198
			c-8.516,0-16.645,2.687-23.512,7.774l-6.25,4.632l-1.145-7.696c-2.859-19.226-19.66-33.726-39.078-33.726
			c-3.23,0-6.465,0.399-9.621,1.189l-7.547,1.886l1.89-7.55c2.699-10.798,0.699-22.299-5.484-31.553
			c-6.183-9.256-16.047-15.503-27.054-17.142l-7.699-1.146l4.633-6.252c6.629-8.943,9.183-20.334,7.012-31.251
			c-2.171-10.918-8.89-20.463-18.438-26.19l-6.672-4.005l6.672-4.005c9.547-5.726,16.266-15.273,18.438-26.19
			c2.172-10.918-0.383-22.31-7.012-31.253l-4.633-6.25l7.699-1.146c11.008-1.638,20.871-7.886,27.054-17.142
			c6.183-9.255,8.183-20.756,5.484-31.554l-1.89-7.549l7.55,1.886c3.152,0.789,6.39,1.189,9.617,1.189
			c19.418,0,36.218-14.498,39.078-33.726l1.145-7.698l6.254,4.633c6.863,5.086,14.992,7.774,23.512,7.774
			c13.824,0,26.824-7.357,33.934-19.2l4-6.671l4.004,6.672c7.106,11.842,20.106,19.199,33.93,19.199
			c8.516,0,16.645-2.687,23.508-7.773l6.254-4.634l1.149,7.699c2.859,19.226,19.66,33.724,39.078,33.724
			c3.226,0,6.461-0.399,9.614-1.187l7.55-1.888l-1.886,7.549c-2.699,10.8-0.699,22.302,5.484,31.557
			c6.183,9.254,16.047,15.501,27.054,17.14l7.699,1.146l-4.633,6.25c-6.629,8.943-9.183,20.335-7.012,31.253
			c2.172,10.917,8.89,20.463,18.434,26.19l6.676,4.004L374.63,208.411z"/>
	</g>
</g>
<g>
	<g>
		<path d="M204.408,76.404c-70.691,0-128,57.308-128,128s57.309,128,128,128s128-57.308,128-128S275.1,76.404,204.408,76.404z
			 M204.408,316.404c-61.758,0-112-50.243-112-112s50.242-112,112-112s112,50.243,112,112S266.166,316.404,204.408,316.404z"/>
	</g>
</g>
<g>
</g>
<g>
</g>
<g>
</g>
<g>
</g>
<g>
</g>
<g>
</g>
<g>
</g>
<g>
</g>
<g>
</g>
<g>
</g>
<g>
</g>
<g>
</g>
<g>
</g>
<g>
</g>
<g>
</g>
</svg>
