<?xml version="1.0" encoding="iso-8859-1"?>
<!-- Generator: Adobe Illustrator 19.0.0, SVG Export Plug-In . SVG Version: 6.00 Build 0)  -->
<svg version="1.1" id="Capa_1" xmlns="http://www.w3.org/2000/svg" xmlns:xlink="http://www.w3.org/1999/xlink" x="0px" y="0px"
	 viewBox="0 0 512 512" style="enable-background:new 0 0 512 512;" xml:space="preserve">
<g>
	<g>
		<path d="M458.554,234.935l-24.094-14.457c-11.922-7.154-15.078-23.027-6.801-34.198l16.726-22.574
			c1.715-2.31,0.344-5.614-2.5-6.036l-27.793-4.136c-13.75-2.047-22.742-15.503-19.371-28.991l6.817-27.258
			c0.617-2.472-1.297-4.738-3.68-4.738c-0.309,0-0.625,0.038-0.942,0.117l-27.262,6.815c-1.922,0.481-3.848,0.711-5.734,0.711
			c-11.359,0-21.5-8.29-23.254-20.08l-4.137-27.794c-0.293-1.987-1.992-3.253-3.778-3.253c-0.774,0-1.558,0.235-2.258,0.752
			l-22.578,16.73c-4.23,3.134-9.137,4.628-13.984,4.628c-7.957,0-15.766-4.023-20.211-11.43l-14.457-24.094
			c-0.738-1.234-2-1.85-3.266-1.85c-1.266,0-2.527,0.617-3.266,1.85l-14.457,24.094c-4.446,7.406-12.254,11.43-20.211,11.43
			c-4.851,0-9.754-1.494-13.984-4.628l-22.578-16.729c-0.699-0.516-1.484-0.752-2.258-0.752c-1.785-0.001-3.484,1.266-3.778,3.253
			l-4.137,27.794c-1.754,11.789-11.894,20.08-23.254,20.08c-1.886,0-3.809-0.23-5.734-0.711l-27.262-6.815
			c-0.317-0.079-0.633-0.117-0.942-0.117c-2.383,0-4.297,2.266-3.68,4.738l6.817,27.261c3.371,13.486-5.617,26.942-19.371,28.988
			l-27.793,4.137c-2.844,0.423-4.215,3.726-2.5,6.036L84.34,186.28c8.278,11.171,5.121,27.044-6.801,34.198l-24.094,14.457
			c-2.469,1.481-2.469,5.054,0,6.534l24.094,14.458c5.531,3.319,9.082,8.542,10.57,14.275h16.262
			c-0.09-0.602-0.043-1.208-0.164-1.806c-2.172-10.917-8.89-20.463-18.434-26.189l-6.676-4.005l6.676-4.005
			c9.543-5.727,16.262-15.274,18.434-26.19c2.172-10.918-0.383-22.31-7.012-31.253l-4.633-6.25l7.699-1.146
			c11.008-1.638,20.871-7.885,27.054-17.138c6.183-9.255,8.183-20.757,5.484-31.558l-1.89-7.549l7.554,1.888
			c3.152,0.788,6.386,1.187,9.614,1.187c19.418,0,36.218-14.498,39.078-33.724l1.149-7.699l6.254,4.634
			c6.863,5.084,14.992,7.771,23.508,7.771c13.824,0,26.824-7.357,33.93-19.198L256,61.302l4.004,6.671
			c7.106,11.842,20.106,19.199,33.93,19.199c8.516,0,16.645-2.687,23.508-7.773l6.254-4.634l1.149,7.699
			c2.859,19.226,19.66,33.724,39.078,33.724c3.226,0,6.461-0.399,9.614-1.187l7.554-1.888l-1.89,7.549
			c-2.699,10.799-0.699,22.3,5.484,31.556c6.183,9.255,16.047,15.502,27.054,17.141l7.695,1.146l-4.629,6.25
			c-6.629,8.943-9.183,20.335-7.012,31.253c2.172,10.917,8.89,20.463,18.434,26.19l6.676,4.005l-6.672,4.004
			c-9.543,5.726-16.266,15.27-18.438,26.186c-0.121,0.6-0.074,1.207-0.168,1.81h16.266c1.488-5.734,5.039-10.956,10.57-14.275
			l24.094-14.458C461.023,239.99,461.023,236.416,458.554,234.935z"/>
	</g>
</g>
<g>
	<g>
		<polygon points="256,334.203 182.469,407.749 193.782,419.062 248,364.829 248,478.203 264,478.203 264,364.829 318.218,419.062 
			329.531,407.749 		"/>
	</g>
</g>
<g>
	<g>
		<path d="M512,286.203H374.519c6.031-14.834,9.481-30.994,9.481-48.002c0-70.692-57.305-128-128-128c-70.691,0-128,57.308-128,128
			c0,17.008,3.453,33.168,9.484,48.001H0v16h75.39l-7.778,10.495c-1.715,2.311-0.344,5.614,2.5,6.037l27.793,4.136
			c13.754,2.046,22.742,15.502,19.371,28.99l-6.817,27.261c-0.617,2.472,1.297,4.738,3.68,4.738c0.309,0,0.625-0.038,0.942-0.117
			l27.258-6.815c1.922-0.482,3.848-0.711,5.738-0.711c4.934,0,9.492,1.796,13.379,4.532l11.504-11.506
			c-6.867-5.615-15.547-9.026-24.883-9.026c-3.23,0-6.465,0.4-9.621,1.189l-7.547,1.886l1.89-7.55
			c2.699-10.8,0.699-22.301-5.484-31.556c-6.183-9.254-16.047-15.501-27.054-17.14l-7.699-1.146l2.738-3.696h49.969
			c11.394,19.618,27.789,35.974,47.519,47.213l11.813-11.814c-16.102-8.362-29.742-20.654-40.114-35.398h183.024
			c-10.371,14.745-24.012,27.037-40.114,35.398l11.817,11.815c19.73-11.239,36.125-27.596,47.516-47.214h49.965l2.738,3.698
			l-7.695,1.145c-11.008,1.638-20.871,7.886-27.054,17.14c-6.183,9.255-8.183,20.756-5.484,31.557l1.89,7.55l-7.55-1.888
			c-3.156-0.788-6.39-1.189-9.617-1.189c-9.336,0-18.016,3.412-24.883,9.027l11.508,11.506c3.883-2.736,8.442-4.534,13.375-4.534
			c1.886,0,3.813,0.23,5.734,0.711l27.262,6.815c0.317,0.079,0.633,0.117,0.942,0.117c2.383,0,4.297-2.266,3.68-4.738l-6.817-27.261
			c-3.371-13.487,5.617-26.943,19.371-28.99l27.793-4.136c2.844-0.424,4.215-3.726,2.5-6.037l-7.778-10.495H512V286.203z
			 M356.984,286.202H155.016v0.001C148.043,271.633,144,255.411,144,238.201c0-61.757,50.242-112,112-112s112,50.243,112,112
			C368,255.41,363.957,271.633,356.984,286.202z"/>
	</g>
</g>
<g>
</g>
<g>
</g>
<g>
</g>
<g>
</g>
<g>
</g>
<g>
</g>
<g>
</g>
<g>
</g>
<g>
</g>
<g>
</g>
<g>
</g>
<g>
</g>
<g>
</g>
<g>
</g>
<g>
</g>
</svg>
